<svg width="95" height="12" fill="none" xmlns="http://www.w3.org/2000/svg"><path d="M2.56 9.57c1.31 0 2-.87 2-2.2V5.54c0-1.32-.67-2.2-1.97-2.2-.7 0-1.3.26-1.7.73H.88V.5H0v8.97h.77l.04-.63h.03a2.2 2.2 0 0 0 1.72.73ZM.87 4.81c.29-.4.82-.74 1.49-.74.9 0 1.32.56 1.32 1.47v1.84c0 .92-.44 1.47-1.34 1.47-.7 0-1.18-.32-1.47-.77V4.81ZM10.77 3.44h-.92L8.2 8.4h-.02l-1.9-4.96H5.3l2.46 5.94-.1.32c-.26.75-.64 1.06-1.37 1.16l.07.64c1.07-.06 1.66-.6 2.06-1.67l2.35-6.4ZM14.92.79v8.68h.98V5.51h3.3v-.82h-3.3V1.65h3.84V.79h-4.82ZM23.73 3.5c-.2-.1-.5-.16-.73-.16-.7 0-1.26.4-1.6 1.25h-.02l-.03-1.15h-.77v6.03h.87V6.01c.1-1.08.61-1.86 1.53-1.86.23 0 .43.05.61.15l.14-.8ZM28.72 6.46V5.5c0-1.23-.79-2.17-2.16-2.17-1.4 0-2.19.9-2.19 2.14v1.96c0 1.25.79 2.15 2.22 2.15 1.12 0 1.8-.51 2.14-1.5l-.63-.26c-.31.76-.74 1.07-1.43 1.07-.91 0-1.43-.55-1.43-1.49v-.94h3.48Zm-3.48-1.04c0-.83.43-1.4 1.34-1.4.86 0 1.36.53 1.36 1.4v.46h-2.7v-.46ZM34.16 6.46V5.5c0-1.23-.79-2.17-2.16-2.17-1.4 0-2.19.9-2.19 2.14v1.96c0 1.25.79 2.15 2.22 2.15 1.12 0 1.8-.51 2.14-1.5l-.63-.26c-.31.76-.74 1.07-1.43 1.07-.91 0-1.43-.55-1.43-1.49v-.94h3.48Zm-3.48-1.04c0-.83.43-1.4 1.34-1.4.86 0 1.37.53 1.37 1.4v.46h-2.7v-.46ZM37.25 3.32c-1.32 0-2 .88-2 2.2v1.86c0 1.32.68 2.2 1.96 2.2.72 0 1.33-.26 1.75-.74h.02l.05.63h.78V.5h-.88V4h-.02c-.4-.44-1-.68-1.66-.68Zm1.68 4.79c-.28.4-.81.74-1.48.74-.9 0-1.33-.55-1.33-1.46V5.53c0-.93.45-1.48 1.34-1.48.7 0 1.17.33 1.47.73V8.1ZM45.85 5.47c0-1.24-.8-2.14-2.28-2.14-1.48 0-2.28.9-2.28 2.14v2c0 1.24.8 2.11 2.28 2.11 1.47 0 2.28-.88 2.28-2.12V5.47Zm-3.69.03c0-.89.43-1.48 1.41-1.48.97 0 1.41.59 1.41 1.48v1.93c0 .88-.44 1.46-1.41 1.46s-1.41-.58-1.41-1.46V5.5ZM51.42 5.53c0-1.02.52-1.45 1.23-1.45.81 0 1.17.55 1.17 1.45v3.94h.87V5.53c0-1.47-.69-2.2-1.85-2.2-.74 0-1.35.37-1.67 1h-.03c-.26-.7-.8-1-1.5-1-.62 0-1.2.3-1.57.85h-.02v-.74h-.78v6.03h.87V5c.24-.52.73-.9 1.3-.9.65 0 1.1.38 1.1 1.44v3.94h.88V5.53ZM59.26.79v8.68h.98V5.51h3.3v-.82h-3.3V1.65h3.84V.79h-4.82ZM65.49 3.44v6.03h.87V3.44h-.87Zm0-2.65V2h.86V.79h-.85ZM69 4.83c.3-.41.82-.76 1.5-.76.88 0 1.32.54 1.32 1.47v3.93h.87V5.53c0-1.33-.67-2.2-1.96-2.2-.73 0-1.35.27-1.77.78h-.03l-.02-.67h-.78v6.03h.88V4.83ZM74.63 4.96c.35-.59.8-.94 1.4-.94.73 0 1.1.46 1.1 1.36v.66h-.54c-2.03 0-2.69.82-2.69 1.94 0 .97.63 1.6 1.69 1.6.62 0 1.2-.22 1.64-.64.14.34.48.6.99.6.17 0 .32-.03.45-.07v-.52h-.16c-.34 0-.5-.2-.5-.54V5.38c0-1.18-.55-2.06-1.88-2.06-.95 0-1.58.52-2.03 1.29l.53.35Zm1.13 3.96c-.64 0-1-.3-1-1 0-.76.41-1.25 1.83-1.25h.54V8.3c-.36.42-.77.63-1.37.63ZM80.56 4.83c.3-.41.82-.76 1.5-.76.88 0 1.31.54 1.31 1.47v3.93h.88V5.53c0-1.33-.67-2.2-1.96-2.2-.73 0-1.36.27-1.77.78h-.03l-.02-.67h-.78v6.03h.87V4.83ZM89.74 4.65a2.12 2.12 0 0 0-2.02-1.32c-1.42 0-2.19.92-2.19 2.14v1.97c0 1.2.77 2.14 2.2 2.14 1.06 0 1.73-.56 2.05-1.41l-.64-.25c-.27.66-.7.96-1.36.96-.87 0-1.37-.54-1.37-1.48V5.5c0-.95.49-1.45 1.37-1.45.61 0 1.1.28 1.35.88l.61-.28ZM94.99 6.46V5.5c0-1.23-.8-2.17-2.17-2.17-1.4 0-2.18.9-2.18 2.14v1.96c0 1.25.79 2.15 2.22 2.15 1.11 0 1.8-.51 2.14-1.5l-.63-.26c-.31.76-.74 1.07-1.44 1.07-.9 0-1.42-.55-1.42-1.49v-.94h3.48ZM91.5 5.42c0-.83.43-1.4 1.34-1.4.86 0 1.36.53 1.36 1.4v.46h-2.7v-.46Z" fill="#777"/></svg>