<svg width="20" height="20" fill="none" xmlns="http://www.w3.org/2000/svg"><path fill-rule="evenodd" clip-rule="evenodd" d="M.95 1.9h1.33l.01.04 2.79 10.38.01.04a.95.95 0 0 0 .89.6h11c.18 0 .43-.05.58-.16.16-.1.28-.25.36-.42l.02-.05 2.01-8.06c.1-.29.05-.6-.12-.84V3.4l-.02-.01a.96.96 0 0 0-.76-.38H4.65L3.85.65A.95.95 0 0 0 2.97 0H.95a.95.95 0 0 0 0 1.9ZM18.48 4.4H4.4l1.92 7.15h10.37l1.79-7.15ZM7.99 15.47a1.56 1.56 0 1 0 0 3.13 1.56 1.56 0 0 0 0-3.13Zm-2.1-.52a2.96 2.96 0 1 1 4.2 4.18 2.96 2.96 0 0 1-4.2-4.18Zm9.14.52a1.56 1.56 0 1 0 0 3.13 1.56 1.56 0 0 0 0-3.13Zm-2.1-.52a2.96 2.96 0 1 1 4.2 4.18 2.96 2.96 0 0 1-4.2-4.18Z" fill="#000"/></svg>