<svg width="200" height="36" fill="none" xmlns="http://www.w3.org/2000/svg"><path d="M46.42 6.09v2.95h6.25v3.3h-6.25v5.53h-4.09V2.8H53.2v3.3h-6.78ZM64.64 13.88h-3.16v4h-4.1V2.78h7.9c1.02-.01 2.04.12 3.02.4.72.22 1.32.7 1.69 1.34.42.89.61 1.86.56 2.83.02.78-.03 1.57-.14 2.35a2.4 2.4 0 0 1-.75 1.38c-.58.47-1.27.79-2.01.91v.16c.75-.01 1.5.25 2.07.73a2.58 2.58 0 0 1 .75 1.95v3.05h-4.15v-2.13c0-1.26-.56-1.88-1.68-1.88Zm-3.16-3.51h3.16c.4.02.8-.05 1.16-.2a.94.94 0 0 0 .45-.67c.07-.5.1-.99.07-1.49.06-.48-.07-.96-.34-1.36a1.93 1.93 0 0 0-1.36-.36h-3.14v4.08ZM79.15 6.09v2.75h6.54v2.8h-6.54v2.93h7.12v3.3h-11.2V2.8h11.05v3.3h-6.97ZM95.05 6.09v2.75h6.55v2.8h-6.55v2.93h7.12v3.3h-11.2V2.8h11.05v3.3h-6.97ZM106.74 17.87V2.8h7.76c1.2-.04 2.4.15 3.53.57a3.86 3.86 0 0 1 2 1.87c.47 1.08.7 2.24.64 3.41v3.2a9.5 9.5 0 0 1-.53 3.45 3.66 3.66 0 0 1-1.75 1.97c-1.04.49-2.18.7-3.33.65l-8.32-.04Zm4.08-11.58v8.09h3.57c1.38 0 2.08-.87 2.08-2.58V8.64c.02-.5-.05-1-.22-1.46a1.2 1.2 0 0 0-.65-.7c-.39-.14-.8-.21-1.2-.2h-3.58ZM131.83 17.96c-.99 0-1.98-.07-2.96-.24a5.96 5.96 0 0 1-2.18-.82 3.9 3.9 0 0 1-1.44-1.7 6.6 6.6 0 0 1-.5-2.78V8.2a6.6 6.6 0 0 1 .5-2.79c.3-.7.8-1.3 1.44-1.73.67-.42 1.4-.7 2.18-.83 1.97-.3 3.96-.3 5.93 0 .78.13 1.52.41 2.18.83.64.41 1.14 1 1.45 1.7.36.87.53 1.82.5 2.78v4.26c.03.95-.14 1.9-.5 2.78-.3.7-.8 1.31-1.45 1.74-.66.41-1.4.7-2.18.82-.98.17-1.97.25-2.97.24v-.04Zm0-3.46c.6.01 1.19-.04 1.77-.16a1.34 1.34 0 0 0 .85-.69c.2-.52.3-1.07.27-1.63v-3.4c0-.45-.04-.9-.15-1.33a1.4 1.4 0 0 0-.49-.73c-.25-.17-.54-.29-.85-.32-.46-.06-.93-.08-1.4-.07a7.3 7.3 0 0 0-1.74.15 1.33 1.33 0 0 0-.84.67 4.02 4.02 0 0 0-.3 1.63v3.4c-.01.56.1 1.11.3 1.63a1.3 1.3 0 0 0 .84.69 7.2 7.2 0 0 0 1.74.16ZM147 6.3l.42 11.57h-4.1V2.8h6.48l2.92 9.46h.16l2.78-9.46h6.63v15.08h-4.08l.41-11.56h-.14l-3.89 11.56h-3.53l-3.93-11.56H147Z" fill="#000"/><path d="M185.17 14.73v3.14h-12.11v-3.14c-.02-.73.05-1.46.2-2.17.12-.5.38-.96.76-1.31.46-.4.99-.7 1.56-.88.95-.31 1.9-.58 2.88-.79 1.03-.24 1.74-.42 2.07-.52a.95.95 0 0 0 .6-.46c.13-.36.18-.74.16-1.13.02-.37-.04-.75-.2-1.1a.94.94 0 0 0-.62-.46 5.97 5.97 0 0 0-1.33-.11c-.48-.02-.95.02-1.42.11a.82.82 0 0 0-.58.46 3.5 3.5 0 0 0-.17 1.18v.75h-3.91v-.75c-.03-.84.1-1.68.4-2.47.2-.6.6-1.12 1.13-1.5.56-.36 1.2-.6 1.86-.72.88-.14 1.77-.21 2.67-.2a13.4 13.4 0 0 1 3.31.32c.83.2 1.55.68 2.03 1.37.54.93.8 2 .72 3.06.01.69-.06 1.37-.2 2.04-.12.48-.35.93-.69 1.3-.35.35-.77.63-1.23.82-.68.28-1.37.5-2.08.69-.45.12-1.03.25-1.76.4-.5.1-.98.22-1.46.39-.25.1-.46.28-.58.52-.14.36-.2.74-.19 1.12l8.18.04ZM198.72 2.8v9.17H200v2.93h-1.3v2.97h-3.88V14.9h-8.02v-4.3l5.95-7.8h5.97Zm-3.87 9.17V5.85h-.14l-4.67 6.12h4.81Z" fill="#72BF44"/></svg>
